Coordinates
version=1
nRows=6
nColumns=63
inDegrees=yes

Units are S.I. units (second, meters, Newtons, ...)
If the header above contains a line with 'inDegrees', this indicates whether rotational values are in degrees (yes) or radians (no).

endheader
time	pelvis_tilt	pelvis_list	pelvis_rotation	pelvis_tx	pelvis_ty	pelvis_tz	hip_flexion_r	hip_adduction_r	hip_rotation_r	knee_angle_r	knee_angle_r_beta	ankle_angle_r	subtalar_angle_r	mtp_angle_r	hip_flexion_l	hip_adduction_l	hip_rotation_l	knee_angle_l	knee_angle_l_beta	ankle_angle_l	subtalar_angle_l	mtp_angle_l	L5_S1_Flex_Ext	L5_S1_Lat_Bending	L5_S1_axial_rotation	L4_L5_Flex_Ext	L4_L5_Lat_Bending	L4_L5_axial_rotation	L3_L4_Flex_Ext	L3_L4_Lat_Bending	L3_L4_axial_rotation	L2_L3_Flex_Ext	L2_L3_Lat_Bending	L2_L3_axial_rotation	L1_L2_Flex_Ext	L1_L2_Lat_Bending	L1_L2_axial_rotation	L1_T12_Flex_Ext	L1_T12_Lat_Bending	L1_T12_axial_rotation	Abs_r3	Abs_r2	Abs_r1	Abs_t1	Abs_t2	neck_flexion	neck_bending	neck_rotation	arm_flex_r	arm_add_r	arm_rot_r	elbow_flex_r	pro_sup_r	wrist_flex_r	wrist_dev_r	arm_flex_l	arm_add_l	arm_rot_l	elbow_flex_l	pro_sup_l	wrist_flex_l	wrist_dev_l
1.932203	4.594673	-2.719505	85.520601	0.243083	0.980391	0.457442	1.950102	4.001447	2.995147	5.082156	0.088700	30.391303	5.925187	0.000000	0.583906	-5.452270	1.723516	0.386471	0.006745	30.915907	-4.749431	0.000000	-0.037608	0.541889	1.060212	-0.069842	0.720713	1.126475	-0.061787	1.317550	1.126475	-0.042982	1.317550	0.927686	-0.034923	1.105021	0.861422	-0.021489	0.839387	0.795159	-0.268632	6.129961	5.896582	0.000000	0.000000	19.457358	-6.509117	3.909432	13.791449	-15.071935	93.505277	5.173923	4.572088	-13.832380	-3.127130	14.905010	-4.012090	146.019538	4.084750	30.872641	-19.378425	2.461289
1.949153	4.672405	-2.764354	86.167485	0.242035	0.980185	0.457084	1.782175	4.064241	2.756802	4.664108	0.081404	30.262467	5.602189	0.000000	0.703419	-5.503742	2.423266	0.372357	0.006499	30.863440	-4.901819	0.000000	-0.027323	0.550940	0.914115	-0.050741	0.732751	0.971247	-0.044888	1.339557	0.971247	-0.031227	1.339557	0.799851	-0.025372	1.123478	0.742719	-0.015612	0.853407	0.685586	-0.195163	6.232349	5.084034	0.000000	0.000000	19.633029	-6.424861	3.964359	14.010880	-15.239088	92.348082	5.386949	4.455333	-13.854719	-3.274546	14.671678	-4.111164	146.593734	4.016882	32.014061	-19.394798	3.118050
1.966102	4.737387	-2.795048	86.883570	0.240885	0.980008	0.456754	1.610917	4.108725	2.368001	4.264259	0.074425	30.183924	5.404498	0.000000	0.840237	-5.538004	3.105365	0.376940	0.006579	30.869609	-4.885951	0.000000	-0.017771	0.558582	0.755422	-0.033002	0.742914	0.802636	-0.029196	1.358137	0.802636	-0.020310	1.358137	0.660994	-0.016502	1.139061	0.613781	-0.010154	0.865244	0.566567	-0.126935	6.318795	4.201432	0.000000	0.000000	19.777914	-6.346958	4.009648	14.212769	-15.410526	90.959071	5.624130	4.587143	-13.887714	-3.487834	14.447126	-4.223734	146.960398	3.963677	33.391550	-19.376427	3.748350
1.983051	4.782180	-2.807877	87.666420	0.239647	0.979853	0.456489	1.424519	4.134111	2.055917	3.864426	0.067447	30.075616	5.004038	0.000000	0.983902	-5.547138	3.890004	0.379975	0.006632	30.884274	-4.878983	0.000000	-0.009971	0.563891	0.589572	-0.018517	0.749975	0.626420	-0.016381	1.371045	0.626420	-0.011396	1.371045	0.515875	-0.009259	1.149887	0.479027	-0.005697	0.873467	0.442179	-0.071222	6.378850	3.279021	0.000000	0.000000	19.898627	-6.271006	4.041140	14.376642	-15.553842	89.831776	5.782660	4.605979	-13.890786	-3.730452	14.239789	-4.341558	147.428274	3.880886	34.626914	-19.260071	4.293562
2.000000	4.812251	-2.804733	88.501894	0.238341	0.979709	0.456308	1.218646	4.144246	1.827783	3.453685	0.060278	29.930226	4.426586	0.000000	1.132413	-5.537317	4.752531	0.382268	0.006672	30.910887	-4.879019	0.000000	-0.003792	0.567702	0.416433	-0.007042	0.755043	0.442460	-0.006230	1.380310	0.442460	-0.004334	1.380310	0.364379	-0.003521	1.157657	0.338352	-0.002167	0.879370	0.312325	-0.027084	6.421955	2.316077	0.000000	0.000000	19.994333	-6.178000	4.105732	14.502641	-15.663920	89.196856	5.831209	4.559025	-13.874133	-3.987379	14.044691	-4.467611	147.886392	3.773053	35.639009	-18.993968	4.706938
2.016949	4.808736	-2.787588	89.338504	0.237033	0.979574	0.456275	1.022337	4.120137	1.674467	3.075647	0.053680	29.763187	3.712689	0.000000	1.282143	-5.488845	5.624413	0.384257	0.006707	30.924219	-4.892763	0.000000	0.000504	0.566921	0.255528	0.000936	0.754005	0.271499	0.000828	1.378412	0.271499	0.000576	1.378412	0.223587	0.000468	1.156066	0.207617	0.000288	0.878161	0.191646	0.003601	6.413125	1.421170	0.000000	0.000000	20.035678	-6.091830	4.074885	14.563175	-15.744259	89.125493	5.755725	4.403978	-13.810286	-4.267534	13.902562	-4.596949	148.517787	3.660281	36.495017	-18.625447	5.038178
